<?xml version="1.0" standalone="no"?>
<!DOCTYPE svg PUBLIC "-//W3C//DTD SVG 20010904//EN"
 "http://www.w3.org/TR/2001/REC-SVG-20010904/DTD/svg10.dtd">
<svg version="1.0" xmlns="http://www.w3.org/2000/svg"
 width="800.000000pt" height="800.000000pt" viewBox="0 0 800.000000 800.000000"
 preserveAspectRatio="xMidYMid meet">
<metadata>
Created by potrace 1.14, written by Peter Selinger 2001-2017
</metadata>
<g transform="translate(0.000000,800.000000) scale(0.100000,-0.100000)"
fill="#000000" stroke="none">
<path d="M3880 7098 c-74 -29 -150 -105 -178 -181 -80 -213 73 -437 298 -437
176 0 320 144 320 320 0 225 -227 379 -440 298z"/>
<path d="M200 5978 c-74 -29 -150 -105 -178 -181 -80 -213 73 -437 298 -437
176 0 320 144 320 320 0 225 -227 379 -440 298z"/>
<path d="M7560 5978 c-74 -29 -150 -105 -178 -181 -46 -122 -19 -252 72 -343
202 -201 546 -58 546 226 0 225 -227 379 -440 298z"/>
<path d="M3440 4674 c-305 -630 -557 -1147 -560 -1149 -3 -2 -543 302 -1200
675 -657 373 -1196 677 -1197 676 -2 -2 37 -169 87 -372 76 -311 686 -2817
835 -3431 l47 -193 2543 0 2543 0 136 552 c522 2121 846 3442 843 3444 -1 1
-540 -303 -1197 -676 -656 -373 -1196 -677 -1200 -675 -3 2 -255 519 -560
1149 -305 630 -557 1146 -560 1146 -3 0 -255 -516 -560 -1146z"/>
</g>
</svg>
